#!OML:ASF E:\Style3\Style3.ASF
:FULLY-SPECIFIED
:DEGREES
2705
root 0.671294 17.8167 0.800713 36.5796 91.9612 19.5854
lowerback -13.2613 -2.0345 0.00593579
upperback -11.0446 -1.96517 1.62969
thorax -4.17478 -0.62682 1.49851
lowerneck -11.0584 -2.81472 -6.88159
upperneck 23.5503 -4.14476 8.38814
head 9.55567 -1.4676 3.64053
rclavicle -1.28713e-014 -2.18663e-015
rhumerus -48.1653 11.4041 -87.7979
rradius 23.8605
rwrist 46.082
rhand -38.4092 53.6836
rfingers 7.12502
rthumb -11.4339 24.0154
lclavicle -1.28713e-014 -2.18663e-015
lhumerus -48.0793 7.08997 76.2286
lradius 20.9759
lwrist -62.9615
lhand -50.5854 9.41395
lfingers 7.12502
lthumb -23.1509 38.0428
rfemur -14.9584 12.8093 18.8351
rtibia 14.5154
rfoot -15.9503 -23.0712
rtoes -12.8978
lfemur 0 0 0
ltibia 0
lfoot 0 0
ltoes 0
2706
root 0.66909 17.8174 0.80134 36.7345 91.9388 19.7426
lowerback -13.2289 -2.0661 -0.0280826
upperback -11.0742 -2.00117 1.65612
thorax -4.22127 -0.640747 1.54317
lowerneck -11.0289 -2.81094 -6.85013
upperneck 23.6148 -4.13102 8.31469
head 9.56938 -1.46539 3.61252
rclavicle -9.93923e-016 1.11319e-014
rhumerus -47.5862 9.71561 -86.645
rradius 22.4509
rwrist 47.3407
rhand -38.4249 53.709
rfingers 7.12502
rthumb -11.4491 24.0416
lclavicle -9.93923e-016 1.11319e-014
lhumerus -48.0699 10.6384 73.28
lradius 19.255
lwrist -66.498
lhand -50.4768 9.06008
lfingers 7.12502
lthumb -23.0467 37.702
rfemur -14.9735 12.8483 18.8253
rtibia 14.512
rfoot -15.8643 -23.1061
rtoes -13.092
lfemur 0 0 0
ltibia 0
lfoot 0 0
ltoes 0
2707
root 0.666604 17.8202 0.803343 38.8858 91.9478 21.8847
lowerback -13.2322 -2.07462 0.0164744
upperback -11.0771 -2.01581 1.67752
thorax -4.22326 -0.649917 1.53926
lowerneck -11.0351 -2.81202 -6.85686
upperneck 23.6624 -4.14202 8.35722
head 9.58933 -1.46513 3.62884
rclavicle -2.61402e-014 1.27222e-014
rhumerus -47.0268 7.9616 -85.4778
rradius 21.1473
rwrist 48.5222
rhand -38.2669 53.6364
rfingers 7.12502
rthumb -11.2967 23.9607
lclavicle -2.61402e-014 1.27222e-014
lhumerus -48.3863 14.7908 69.6054
lradius 17.5845
lwrist -70.7324
lhand -50.3535 8.54404
lfingers 7.12502
lthumb -22.9284 37.2007
rfemur -15.0083 12.9572 18.8915
rtibia 14.5126
rfoot -15.8635 -23.1937
rtoes -12.8118
lfemur 0 0 0
ltibia 0
lfoot 0 0
ltoes 0
2708
root 0.666828 17.8212 0.804188 39.5916 91.933 22.6071
lowerback -13.3543 -2.08485 -0.0183573
upperback -10.9991 -2.03235 1.7055
thorax -4.07037 -0.658243 1.58204
lowerneck -11.0957 -2.81212 -6.85465
upperneck 23.6576 -4.13781 8.34369
head 9.59859 -1.4641 3.62366
rclavicle 2.28602e-014 -1.19271e-014
rhumerus -46.5113 6.34522 -84.381
rradius 20.0289
rwrist 49.3591
rhand -38.0735 53.3991
rfingers 7.12502
rthumb -11.1101 23.7131
lclavicle 2.28602e-014 -1.19271e-014
lhumerus -49.2329 20.0405 64.7744
lradius 15.8952
lwrist -76.3714
lhand -50.4949 8.4195
lfingers 7.12502
lthumb -23.0641 37.0593
rfemur -14.984 12.9529 18.9247
rtibia 14.5036
rfoot -15.8371 -23.2299
rtoes -12.6243
lfemur 0 0 0
ltibia 0
lfoot 0 0
ltoes 0
2709
root 0.666607 17.8203 0.804105 38.2437 91.8639 21.3275
lowerback -13.4846 -2.06715 -0.0808776
upperback -10.8685 -2.01636 1.66852
thorax -3.85808 -0.653893 1.57436
lowerneck -11.1473 -2.82287 -6.83974
upperneck 23.6044 -4.15651 8.35588
head 9.5913 -1.47089 3.62144
rclavicle 1.04362e-014 -1.07344e-014
rhumerus -45.9528 4.31798 -83.0136
rradius 18.9312
rwrist 50.8764
rhand -38.1328 53.4257
rfingers 7.12502
rthumb -11.1673 23.7429
lclavicle 1.04362e-014 -1.07344e-014
lhumerus -51.0692 25.9069 58.7664
lradius 14.6202
lwrist -83.1943
lhand -50.6169 8.92908
lfingers 7.12502
lthumb -23.1811 37.5542
rfemur -14.8997 12.8187 18.8798
rtibia 14.5011
rfoot -15.7815 -23.1348
rtoes -12.6695
lfemur 0 0 0
ltibia 0
lfoot 0 0
ltoes 0
2710
root 0.666269 17.82 0.804216 38.735 91.8293 21.8232
lowerback -13.5714 -2.05254 -0.0581407
upperback -10.8261 -2.00269 1.65418
thorax -3.76749 -0.650542 1.54509
lowerneck -11.1025 -2.82263 -6.89029
upperneck 23.5326 -4.16444 8.43546
head 9.56076 -1.4727 3.65575
rclavicle 7.45443e-016 8.54774e-015
rhumerus -45.6247 2.50323 -81.7775
rradius 18.0579
rwrist 52.3721
rhand -38.1602 53.4738
rfingers 7.12502
rthumb -11.1937 23.7924
lclavicle 7.45443e-016 8.54774e-015
lhumerus -54.3073 31.7559 51.7009
lradius 13.8681
lwrist -90.221
lhand -50.6513 8.85531
lfingers 7.12502
lthumb -23.2141 37.4762
rfemur -14.9078 12.7684 18.8779
rtibia 14.5057
rfoot -15.7316 -23.1016
rtoes -12.8068
lfemur 0 0 0
ltibia 0
lfoot 0 0
ltoes 0
2711
root 0.666561 17.8198 0.805276 39.4409 91.7749 22.5225
lowerback -13.5618 -2.04617 -0.0661035
upperback -10.8546 -1.99109 1.64617
thorax -3.8039 -0.643317 1.54304
lowerneck -11.0521 -2.8237 -6.86322
upperneck 23.5389 -4.16667 8.40726
head 9.55237 -1.47486 3.6412
rclavicle 9.74045e-015 -7.35503e-015
rhumerus -45.5271 0.714483 -80.5524
rradius 17.3767
rwrist 53.9002
rhand -38.1625 53.3837
rfingers 7.12502
rthumb -11.196 23.7025
lclavicle 9.74045e-015 -7.35503e-015
lhumerus -58.2712 36.5562 44.5189
lradius 13.2318
lwrist -96.3273
lhand -50.7864 8.13633
lfingers 7.12502
lthumb -23.3437 36.7409
rfemur -14.9309 12.7908 18.8607
rtibia 14.5163
rfoot -15.8164 -22.9761
rtoes -12.5682
lfemur 0 0 0
ltibia 0
lfoot 0 0
ltoes 0
2712
root 0.667436 17.8201 0.805928 41.9872 91.7697 25.0371
lowerback -13.6422 -2.04648 -0.0174362
upperback -10.8462 -1.99527 1.67345
thorax -3.75282 -0.647144 1.5418
lowerneck -11.0427 -2.81414 -6.87375
upperneck 23.5297 -4.15491 8.42261
head 9.54677 -1.46911 3.64964
rclavicle 2.52953e-014 -2.68359e-014
rhumerus -45.4464 -0.606931 -79.6738
rradius 16.8271
rwrist 54.9876
rhand -38.2411 53.5126
rfingers 7.12502
rthumb -11.2718 23.8354
lclavicle 2.52953e-014 -2.68359e-014
lhumerus -62.4682 40.3107 37.6749
lradius 12.7614
lwrist -101.452
lhand -50.7467 7.56586
lfingers 7.12502
lthumb -23.3057 36.1752
rfemur -14.9603 12.7379 18.9361
rtibia 14.504
rfoot -15.7106 -22.9006
rtoes -12.9107
lfemur 0 0 0
ltibia 0
lfoot 0 0
ltoes 0
